<svg id="Laag_1" data-name="Laag 1" xmlns="http://www.w3.org/2000/svg" viewBox="0 0 229.86 193"><defs><style>.cls-1{fill:#a0447e;}.cls-2{fill:#fff;}.cls-3,.cls-5{fill:none;}.cls-4{fill:#ce74ad;}.cls-5{stroke:#1e1e1c;stroke-linecap:round;stroke-miterlimit:10;stroke-width:1.63px;}.cls-6{fill:#fbef9a;}.cls-7{fill:#1e1e1c;}</style></defs><title>Icoon</title><g id="kat"><g id="Lichaam"><path class="cls-1" d="M229,86.54a81.63,81.63,0,0,1-3.17,14.06q-.93,2.91-2.06,5.6c-13.12,31.42-43.67,39.74-55.91,42.92a28.6,28.6,0,0,1-4.72.76,63,63,0,0,1-9,0A160.88,160.88,0,0,1,128.79,146q-3.75-.86-7.46-1.83A193.17,193.17,0,0,1,96.83,136a11.42,11.42,0,0,0-1.74-.57l-1-.24c-1.73-.4-3.37-.76-4.91-1.08-8.52-1.75-14.18-2.18-18.52-1.55a19.74,19.74,0,0,0-6,1.82A30.79,30.79,0,0,0,59.21,138a53.41,53.41,0,0,0-6.4,5.84,30.33,30.33,0,0,0-5.76,8.51h0a15.2,15.2,0,0,0-1.25,7.77,13.22,13.22,0,0,0,.62,2.69,54.16,54.16,0,0,0,5.34,10.12c7.13,10.62,15.58,14.93,15.58,14.93a1.42,1.42,0,0,1,.94,1.47c-23.67,9.49-40.13-4.52-47.4-12.61-1.42-1.57-2.49-2.93-3.2-3.83-.25-.33-.48-.66-.69-1a62.38,62.38,0,0,1-4.5-8.93c-3.71-9-7.15-23-.37-35.39a34.46,34.46,0,0,1,8.8-10.33c6-4.87,14.67-9.06,26.76-12a38.24,38.24,0,0,1,11.77-1c1.4.1,2.76.22,4.07.36,2.61.27,5.06.61,7.4,1A109.89,109.89,0,0,1,91,111.11c1.82.66,3.61,1.36,5.41,2.06,6.48,2.56,13,5.29,20.84,7.73,1.29.4,2.61.79,4,1.18,2.71.75,5.58,1.47,8.67,2.13a11.72,11.72,0,0,0,1.78.24,33.43,33.43,0,0,0,6.08-.24,29.38,29.38,0,0,0,4.2-.9,23.26,23.26,0,0,0,13.44-10,19.94,19.94,0,0,0,2-4.32,16.57,16.57,0,0,0,0-11.25,12.7,12.7,0,0,0-2.67-4.17,12.53,12.53,0,0,0-1.21-1.09,10.47,10.47,0,0,0-3.74-1.88,11.92,11.92,0,0,0-2.3-.41l-1.17-.07a72.83,72.83,0,0,0-13.86.43h0c-1.46.18-2.83.38-4.17.57l-1.61.23A11.26,11.26,0,0,1,113.93,81c-.79-11.46-1.52-29.72-15.71-46.17A11.23,11.23,0,0,1,101,17.93c1.9-1.16,4-2.32,6.33-3.46,1.81-.89,3.73-1.78,5.74-2.64,19.7-8.44,47.88-14.78,64-10.41.65.18,1.29.37,1.9.59a67.42,67.42,0,0,1,7,2.88,78.33,78.33,0,0,1,33.78,30.72c1.13,1.92,2.19,3.93,3.16,6C228.62,53.9,231.4,68.87,229,86.54Z"/><path class="cls-2" d="M51.76,172.9c-8.78,1.69-20.65,3.56-30.88,3.79-1.42-1.57-2.49-2.93-3.2-3.83-.25-.33-.48-.66-.69-1a62.38,62.38,0,0,1-4.5-8.93c9,.4,21.85.2,33.31-2.84a13.22,13.22,0,0,0,.62,2.69A54.16,54.16,0,0,0,51.76,172.9Z"/><path class="cls-2" d="M52.81,143.8a30.33,30.33,0,0,0-5.76,8.51c-.58-.16-1.19-.34-1.82-.54-14.62-4.62-27.08-17.25-33.11-24.23a34.46,34.46,0,0,1,8.8-10.33C16.72,124.59,44.87,139.72,52.81,143.8Z"/><path class="cls-2" d="M70.67,132.57a19.74,19.74,0,0,0-6,1.82c-2.31-9.09-1.63-23.39-1.16-29.79,2.61.27,5.06.61,7.4,1A202.2,202.2,0,0,0,70.67,132.57Z"/><path class="cls-2" d="M163.12,149.88a63,63,0,0,1-9,0c-7.68-7.67-13.55-19.46-16.33-25.69a29.38,29.38,0,0,0,4.2-.9C146,130.29,157.6,143.62,163.12,149.88Z"/><path class="cls-2" d="M128.79,146q-3.75-.86-7.46-1.83c-2.17-6.63-3.49-17.31-4.09-23.23,1.29.4,2.61.79,4,1.18C122,130.18,126,140.07,128.79,146Z"/><path class="cls-2" d="M96.4,113.17c-.9,5.86-1.84,16.52-2.3,22-1.73-.4-3.37-.76-4.91-1.08-1.51-7.81.43-17.63,1.8-23C92.81,111.77,94.6,112.47,96.4,113.17Z"/><path class="cls-2" d="M225.81,100.6q-.93,2.91-2.06,5.6c-26.08,11.92-55.27,8.8-68.36,7.1a19.94,19.94,0,0,0,2-4.32C188.06,111.22,217,103.31,225.81,100.6Z"/><path class="cls-2" d="M222.89,41.62C202.24,68.29,168.05,91,157.4,97.73a12.7,12.7,0,0,0-2.67-4.17c32.49-17.56,57.46-48.09,65-57.95C220.86,37.53,221.92,39.54,222.89,41.62Z"/><path class="cls-2" d="M186,4.89c-.78,30.94-22.57,66.45-36.17,85.7a11.92,11.92,0,0,0-2.3-.41l-1.17-.07C168,44.52,175.09,12.31,177,1.42c.65.18,1.29.37,1.9.59A67.42,67.42,0,0,1,186,4.89Z"/><path class="cls-2" d="M132.45,90.54h0c-1.46.18-2.83.38-4.17.57.73-9.88.68-39.79-21-76.64,1.81-.89,3.73-1.78,5.74-2.64C121.61,24.58,137.36,53.73,132.45,90.54Z"/><path class="cls-3" d="M229,86.54a81.63,81.63,0,0,1-3.17,14.06q-.93,2.91-2.06,5.6c-13.12,31.42-43.67,39.74-55.91,42.92a28.6,28.6,0,0,1-4.72.76,63,63,0,0,1-9,0A160.88,160.88,0,0,1,128.79,146q-3.75-.86-7.46-1.83A193.17,193.17,0,0,1,96.83,136a11.42,11.42,0,0,0-1.74-.57l-1-.24c-1.73-.4-3.37-.76-4.91-1.08-8.52-1.75-14.18-2.18-18.52-1.55a19.74,19.74,0,0,0-6,1.82A30.79,30.79,0,0,0,59.21,138a53.41,53.41,0,0,0-6.4,5.84,30.33,30.33,0,0,0-5.76,8.51h0a15.2,15.2,0,0,0-1.25,7.77,13.22,13.22,0,0,0,.62,2.69,54.16,54.16,0,0,0,5.34,10.12c7.13,10.62,15.58,14.93,15.58,14.93a1.42,1.42,0,0,1,.94,1.47c-23.67,9.49-40.13-4.52-47.4-12.61-1.42-1.57-2.49-2.93-3.2-3.83-.25-.33-.48-.66-.69-1a62.38,62.38,0,0,1-4.5-8.93c-3.71-9-7.15-23-.37-35.39a34.46,34.46,0,0,1,8.8-10.33c6-4.87,14.67-9.06,26.76-12a38.24,38.24,0,0,1,11.77-1c1.4.1,2.76.22,4.07.36,2.61.27,5.06.61,7.4,1A109.89,109.89,0,0,1,91,111.11c1.82.66,3.61,1.36,5.41,2.06,6.48,2.56,13,5.29,20.84,7.73,1.29.4,2.61.79,4,1.18,2.71.75,5.58,1.47,8.67,2.13a11.72,11.72,0,0,0,1.78.24,33.43,33.43,0,0,0,6.08-.24,29.38,29.38,0,0,0,4.2-.9,23.26,23.26,0,0,0,13.44-10,19.94,19.94,0,0,0,2-4.32,16.57,16.57,0,0,0,0-11.25,12.7,12.7,0,0,0-2.67-4.17,12.53,12.53,0,0,0-1.21-1.09,10.47,10.47,0,0,0-3.74-1.88,11.92,11.92,0,0,0-2.3-.41l-1.17-.07a72.83,72.83,0,0,0-13.86.43h0c-1.46.18-2.83.38-4.17.57l-1.61.23A11.26,11.26,0,0,1,113.93,81c-.79-11.46-1.52-29.72-15.71-46.17A11.23,11.23,0,0,1,101,17.93c1.9-1.16,4-2.32,6.33-3.46,1.81-.89,3.73-1.78,5.74-2.64,19.7-8.44,47.88-14.78,64-10.41.65.18,1.29.37,1.9.59a67.42,67.42,0,0,1,7,2.88,78.33,78.33,0,0,1,33.78,30.72c1.13,1.92,2.19,3.93,3.16,6C228.62,53.9,231.4,68.87,229,86.54Z"/></g><path id="Oor_links" data-name="Oor links" class="cls-4" d="M0,55.13S11.65,25,18.36,22.63c6.14.84,13.73,17.59,18.34,30.58C32,61.83,1,57.65,0,55.13Z"/><path id="Oor_rechts" data-name="Oor rechts" class="cls-4" d="M57.65,50.17s11.46-34.93,14-33.56,21.76,23.25,20.38,25.8S72.58,52.57,57.65,50.17Z"/><g id="Grin"><path class="cls-2" d="M10.59,77.47c9.29,4.74,41.2,17.13,78.47-12a1.16,1.16,0,0,1,1.86,1.09A33.2,33.2,0,0,1,76.76,88.35l-.09.06C53.24,102.71,17.91,98.39,9,79A1.17,1.17,0,0,1,10.59,77.47Z"/><path class="cls-5" d="M88.41,74.63a19.94,19.94,0,0,0-1.57-7.52"/><path class="cls-5" d="M76.28,74c3.16,1.29,7.08,3.42,9.13,5.81"/><path class="cls-5" d="M72.84,90.53c.47-4,.77-10.91,0-14.71"/><path class="cls-5" d="M63.3,80a63.44,63.44,0,0,1,7.85,11.38"/><path class="cls-5" d="M57.05,95.78c.62-3.38,1.68-10.56,2.62-14.63"/><path class="cls-5" d="M48.18,83.61A91.19,91.19,0,0,1,56,96"/><path class="cls-5" d="M39.94,96.62c1-2.31,3-8.75,4.34-12.62"/><path class="cls-5" d="M34.41,84c1.5,3.8,3.79,10.18,4.69,12.57"/><path class="cls-5" d="M24.33,92.83a96.9,96.9,0,0,0,6.91-9.18"/><path class="cls-5" d="M21.73,81.75c.37,3.13.51,7.72.78,10.24"/><path class="cls-5" d="M10.87,82.29a59.38,59.38,0,0,0,6.41-2"/><path class="cls-3" d="M10.59,77.47c9.29,4.74,41.2,17.13,78.47-12a1.16,1.16,0,0,1,1.86,1.09A33.2,33.2,0,0,1,76.76,88.35l-.09.06C53.24,102.71,17.91,98.39,9,79A1.17,1.17,0,0,1,10.59,77.47Z"/></g><g id="ogen"><ellipse class="cls-6" cx="21.75" cy="69.68" rx="4.07" ry="13.97" transform="translate(-51.18 72.91) rotate(-75.2)"/><ellipse class="cls-6" cx="73.9" cy="63.13" rx="13.29" ry="3.36" transform="translate(-21.66 45.41) rotate(-30)"/><ellipse class="cls-7" cx="22.11" cy="69.29" rx="6.48" ry="1.38" transform="translate(-48.98 84.64) rotate(-84.49)"/><ellipse class="cls-7" cx="73.38" cy="63.2" rx="1.38" ry="6.48" transform="translate(-2.99 3.65) rotate(-2.79)"/></g></g></svg>