<?xml version="1.0" encoding="utf-8"?>
<!-- Generator: Adobe Illustrator 22.0.1, SVG Export Plug-In . SVG Version: 6.00 Build 0)  -->
<svg version="1.1" id="Laag_1" xmlns="http://www.w3.org/2000/svg" xmlns:xlink="http://www.w3.org/1999/xlink" x="0px" y="0px"
	 viewBox="0 0 526.7 279" style="enable-background:new 0 0 526.7 279;" xml:space="preserve">
<style type="text/css">
	.st0{fill:#FFFFFF;}
</style>
<g>
	<path class="st0" d="M260.4,217.3c0.2-3.4,0.3-8.8,0.7-14.3c0.7-8.9,7.5-14.8,16.4-13.1c6.1,1.1,12,3.7,18,5.7
		c3.2,1.1,4.5,3.6,5,6.8c2,10.6,1.5,21.2,0.5,31.8c-0.1,0.7-1.1,1.8-1.9,2c-10.9,2.2-22,2.3-33.1,1.9c-3.3-0.1-4.7-1.6-4.8-4.9
		C261.1,228.6,260.7,224,260.4,217.3z"/>
	<path class="st0" d="M219.2,236c-1.6-10.4-2-20.5-0.4-30.7c0.4-2.7,1.5-4.9,4.1-6c6.7-2.8,13.3-6.1,20.3-8
		c7.8-2.1,14.1,2.8,14.3,10.9c0.2,10.1-0.4,20.1-0.5,30.2c0,3.3-1.7,4.3-4.7,4.6C241.3,237.9,230.4,237.8,219.2,236z"/>
	<path class="st0" d="M340.2,231.4c-11.5,2.3-22.5,6.3-34.6,5.3c-0.3-4.3-0.8-8.6-0.7-12.8c0.1-8.2,0.5-16.4,0.9-24.5
		c0.1-1.1,1.3-2.9,2.1-3c8.1-0.6,16.1-3,24.4-0.9c3.6,0.9,5.4,2.6,5.7,6.2c0.5,6,1,11.9,1.5,17.9C339.9,223.4,340,227.2,340.2,231.4
		z"/>
	<path class="st0" d="M261.9,240.2c13.2,0,25.8,0,38.8,0c-0.2-0.3,0-0.1,0,0c-0.4,9-0.7,17.9-1.5,26.9c-0.5,5.7-4.6,9-10.4,9.1
		c-5.2,0.1-10.4,0-15.6,0c-5.5,0-9.8-3.4-10.6-8.9c-0.6-4-0.6-8.2-0.6-12.2C261.9,250.4,261.9,245.6,261.9,240.2z"/>
	<path class="st0" d="M219.3,239.7c12.5,0,24.6,0,36.9,0c0.3,7.7,0.9,15.6,0.7,23.6c-0.1,7.4-3.8,10.5-11.1,10.3
		c-4.8-0.1-9.5-0.5-14.3-0.5c-5.2,0-8.4-3.4-9.2-7.6C220.7,257,220.2,248.2,219.3,239.7z"/>
	<path class="st0" d="M215.4,236.7c-12.3,0.9-23.1-2.1-34.6-4.6c0.6-9,1-18,1.9-27c0.1-1.3,2-3.2,3.3-3.5c4.8-0.8,9.6-1.2,14.4-1.4
		c3.3-0.2,6.6,0.2,9.9,0.2c2.4,0,3.4,0.8,3.5,3.3C214.3,214.5,214.9,225.4,215.4,236.7z"/>
	<path class="st0" d="M343.1,216.4c0-2.8,0-5.5,0-8.3c0.1-8.9,6.3-15.2,15.2-15.6c0.1,0,0.2,0,0.3,0c10.9-0.3,12.7,1,15.2,11.7
		c1.3,5.8,2.4,11.7,3.4,17.6c0.2,1.2-0.7,3.3-1.6,3.7c-9.1,3.7-18.5,6.6-28.6,6c-2.3-0.1-3.7-0.8-3.6-3.5
		C343.5,224.2,343.2,216.4,343.1,216.4z"/>
	<path class="st0" d="M342.6,234.8c12.5,0.8,23.8-1.9,35.3-6.4c-0.4,10.2,1.4,20.3-2.2,30.2c-1.2,3.3-3.1,5.4-6.8,5.9
		c-3.2,0.5-6.3,1.2-9.4,2.1c-4.1,1.2-7.4-0.1-10.3-2.9c-3.7-3.6-6.6-7.5-6.6-12.9C342.6,245.5,342.6,240.4,342.6,234.8z"/>
	<path class="st0" d="M305.1,239.8c11.4,1,22.3-0.2,33.3-4.5c-0.4,10.8,0.9,21.4-4.3,31.3c-1.4,2.8-3.2,4.9-6.6,5.3
		c-5.7,0.7-11.4,1.5-17.1,2.3c-1.8,0.3-3-0.2-3.5-2.1c-0.6-2.2-1.7-4.4-1.8-6.7C304.9,257.1,305.1,248.6,305.1,239.8z"/>
	<path class="st0" d="M178,221.2c0,2.4-0.2,4.9,0,7.3c0.3,3.1-1.2,3.8-4,3.9c-7,0.3-13.6-1.2-20.2-3.2c-9.9-2.9-9.7-1.2-7.6-12.5
		c0.7-3.6,1.3-7.2,2.2-10.7c1.2-4.7,3.8-6.7,8.6-6.7c3.4,0,6.9,0.2,10.2,0.9c6.6,1.4,10.1,5.9,10.5,12.7c0.2,2.8,0,5.5,0,8.3
		C177.8,221.2,177.9,221.2,178,221.2z"/>
	<path class="st0" d="M215.4,239.4c0.3,7.9,0.6,15.3,0.9,22.7c0,0.7-0.1,1.3-0.1,2c-0.8,6.3-1.6,7-7.9,6c-4.3-0.7-8.5-1.5-12.8-2.1
		c-3.6-0.5-5.6-2.6-7.3-5.5c-4.9-8.3-4.2-17.5-5.1-26.9C193.7,239.4,204.3,240.3,215.4,239.4z"/>
	<path class="st0" d="M145.2,229.5c10.2,3.3,20.5,6.4,31.6,5.6c1.7-0.1,2.5,0.3,2.5,2.1c-0.1,5.3,0.4,10.7-0.5,15.8
		c-1.1,6.4-8.4,10.6-14.9,9.3c-3.5-0.7-6.9-1.5-10.4-2.2c-3.3-0.7-5.3-3.1-5.9-6.1c-1.1-5.3-1.8-10.6-2.3-16
		C144.9,235.2,145.2,232.3,145.2,229.5z"/>
	<path class="st0" d="M380.8,228.1c9.5-1.7,18.9-4.6,27.4-10.7c0.3,9.5,2.2,18.8-0.6,28.1c-1.6,5.4-4.9,9.3-10.6,10.8
		c-0.6,0.2-1.3,0.4-1.9,0.7c-6.5,2.5-10.1,1.3-13.7-4.7c-0.5-0.8-0.6-1.9-0.6-2.8C380.7,242.4,380.8,235.4,380.8,228.1z"/>
	<path class="st0" d="M436.7,204.9c-0.6,8.5-0.9,16.8-2,25c-1.2,8.5-7.1,13.2-14.8,15.7c-3.9,1.3-8.5-2.6-8.7-6.7
		c-0.2-6.2-0.5-12.4-0.9-18.6c-0.2-2.4,0.3-3.7,2.8-4.7C420.7,212.3,428.2,208.7,436.7,204.9z"/>
	<path class="st0" d="M141.9,229.8c0.3,5.2,0.6,10.9,0.8,16.6c0.2,5-6.1,9.6-10.8,7.8c-2.1-0.7-4.2-1.5-6.2-2.2
		c-6.3-2.4-9.3-7.4-10.1-13.6c-0.6-4.5-0.3-9-0.4-13.6c0-1.8,0-3.5,0-4.6C123.8,223.3,132.8,226.5,141.9,229.8z"/>
	<path class="st0" d="M141.6,224.9c-1.4-0.1-3,0.1-4.4-0.4c-6.5-2.3-12.9-4.7-19.3-7.1c-1.9-0.7-2.5-1.8-2-3.8
		c1.3-5,2.1-10.2,3.6-15.2c1.3-4.6,7.7-7.1,12.8-5.3c3.9,1.4,6.9,3.7,8.2,8C142.5,208.1,143.1,217.1,141.6,224.9z"/>
	<path class="st0" d="M409.9,212.8c-0.3-9.2-1.7-17.7,0.8-26.3c1.4-4.7,4.6-6.6,8.7-7.6c3.6-0.8,6.8,0.5,9.2,3.4
		c4,4.9,6.3,10.6,6.9,16.9c0.1,0.9-0.6,2.5-1.4,2.9C426.3,205.7,418.4,209.1,409.9,212.8z"/>
	<path class="st0" d="M87.7,207.4c7.9,3.5,15.2,6.8,22.7,9.8c2.3,0.9,2.9,2.1,2.8,4.4c-0.3,4.8-0.5,9.7-0.5,14.6
		c0,4.9-4.3,7.7-9,6.1c-8.9-3.1-13.7-9.3-14.8-18.5C88.3,218.4,88.1,212.9,87.7,207.4z"/>
	<path class="st0" d="M113.3,215.3c-8.4-3.7-16.3-7-24.1-10.6c-0.7-0.3-1.3-1.8-1.2-2.6c0.6-4.8,2.1-9.3,5.5-12.9
		c5.1-5.5,14.7-3.7,17.3,3.3c1.3,3.4,1.9,7,2.3,10.6C113.6,206.8,113.3,210.7,113.3,215.3z"/>
	<path class="st0" d="M457.4,192.9c0.2,9.1,0.1,18.2-2.6,27c-1.6,5.2-6,7.6-10,10.1c-2.1,1.3-6.6-2.4-6.5-5
		c0.3-6.6,0.7-13.3,1.2-19.9c0.1-0.8,1-1.8,1.8-2.4C446.6,199.4,451.9,196.2,457.4,192.9z"/>
	<path class="st0" d="M438,201.1c-0.4-8.1-1-15.4-1.1-22.6c-0.1-4.7,2.1-8.5,6.3-11c3.8-2.2,7.4-1.3,8.8,2.8c1.7,5.2,2.8,10.6,4,16
		c0.2,0.7,0.2,1.8-0.2,2.2C451,193.6,445.6,197.8,438,201.1z"/>
	<path class="st0" d="M475.9,170.3c2.7,15.5,5.6,30.6-10.7,40.6c-3.5-3-5-6.6-5.4-11.4c-0.5-6.5,0.6-11.4,5.7-16
		C469.5,180,472.3,175,475.9,170.3z"/>
	<path class="st0" d="M66.7,195.6c5.7,3.3,11.2,6.4,16.6,9.7c0.7,0.4,1.2,1.5,1.3,2.3c0.6,5.2,0.8,10.4,1.7,15.5
		c0.4,2.3-0.5,3.6-2,4.2c-1.4,0.6-3.6,1-4.9,0.4c-5.9-2.9-9.9-7.4-10.7-14.2C67.9,207.6,67.4,201.7,66.7,195.6z"/>
	<path class="st0" d="M84.4,203.9c-5.2-3.8-10.5-7.5-15.7-11.4c-0.6-0.4-0.8-1.8-0.7-2.7c1.1-4.6,2.2-9.3,3.6-13.8
		c1-3.1,3.9-2.8,6.2-1.9c4.3,1.8,7.7,4.9,8.1,9.7c0.4,6.3,0.1,12.7,0.1,19.1C85.5,203.3,84.9,203.6,84.4,203.9z"/>
	<path class="st0" d="M490.6,151.8c4.1,6.2,4.2,24.9,0.1,30.6c-1.7,2.4-4,4.4-6,6.6c-2.9-0.9-4-2.6-4.2-5.6
		c-0.3-4.4-1.5-8.7-2.1-13.1c-0.2-1.1-0.4-2.7,0.1-3.4C482.4,161.8,486.5,156.8,490.6,151.8z"/>
	<path class="st0" d="M48.8,174.9c5.1,5.7,10.1,11.4,15.1,17.1c0.5,0.5,0.8,1.3,0.8,2c0.1,3.6,0.4,7.4-0.2,10.9
		c-0.4,2.1-2.4,4-3.7,5.9C48.4,203.7,45,194.6,48.8,174.9z"/>
	<path class="st0" d="M458,185.5c-0.8-2.8-1.6-4.7-1.7-6.7c-0.2-4.9-0.2-9.7,0-14.6c0.1-5.1,3.4-8.5,7.1-11.5c2.3-1.8,5.5-1,6.7,1.8
		c1.4,3.3,2.4,6.9,3.4,10.4c0.2,0.6,0.1,1.4-0.2,1.9C469.3,173.6,464.1,179.2,458,185.5z"/>
	<path class="st0" d="M41.8,190.2c-9.9-8.8-13.1-24.8-7.4-34.2c3.9,4.8,7.9,9.7,11.8,14.6c0.5,0.6,0.6,1.8,0.5,2.7
		c-0.6,4.5-1.1,9-2.1,13.4C44.4,188.1,42.8,189.1,41.8,190.2z"/>
	<path class="st0" d="M65.1,188.7c-4.5-5.5-9.2-10.9-13.5-16.7c-1.8-2.4,1.4-11.8,4.2-12.7c1.2-0.4,3.2,0,4.3,0.8
		c4.1,3.2,7.4,7,7.4,12.7c-0.1,4.2,0.1,8.4-0.1,12.6c0,1-0.6,1.9-1,2.9C65.9,188.5,65.5,188.6,65.1,188.7z"/>
	<path class="st0" d="M496.3,167.5c-1.1-6.1-2.2-12.3-3.3-18.4c-0.1-0.4,0-0.9,0.2-1.3c3-5.2,6.1-10.4,9.6-16.3
		c1.2,10.2,4.5,19.6,0.6,29c-1.2,2.9-4.1,5.1-6.3,7.6C496.9,167.9,496.6,167.7,496.3,167.5z"/>
	<path class="st0" d="M476.8,163.6c-3.4-8.5-3.3-16.2,0.3-23.8c0.7-1.4,1.5-2.7,2.4-3.9c1.3-1.5,2.9-1.7,4.1,0.1
		c4.5,6.8,6.5,11.1,1,17.5C482,156.6,479.6,159.9,476.8,163.6z"/>
	<path class="st0" d="M29.5,169.4c-6.7-4.2-9-10.1-8.6-17c0.3-5.4,1-10.7,1.7-17c3.5,6.1,6.4,11.2,9.4,16.3c0.2,0.4,0.3,0.9,0.2,1.3
		C31.3,158.3,30.5,163.6,29.5,169.4z"/>
	<path class="st0" d="M507.7,145.7c-0.9-6-2.2-12.1-2.6-18.2c-0.2-2.2,1.5-4.5,2.3-6.8c1.3-3.4,2.6-6.8,3.9-10
		C517.7,117.1,515.4,140.8,507.7,145.7z"/>
	<path class="st0" d="M47.6,168.3c-3.6-5-6.8-9.4-9.8-14c-1.7-2.7,0.5-10.8,3.4-12.1c0.9-0.4,3.3,0.6,3.9,1.6
		C49.7,151.2,51.7,158.9,47.6,168.3z"/>
	<path class="st0" d="M14.8,114.5c1.5,4.1,2.7,8.1,4.3,11.8c1.3,3.1,1.5,6,0.9,9.3c-0.8,3.9-0.9,8-1.3,12.1
		C10,141.2,10.2,124.9,14.8,114.5z"/>
	<path class="st0" d="M490.5,143.8c-2-7.2-2.6-13.9-1.1-20.8c0.5-2.2,1.4-4.6,3.8-4.2c1.9,0.3,3.9,1.8,5.1,3.3
		c1.8,2.3,2,5.1,0.2,7.9C495.9,134.4,493.4,138.9,490.5,143.8z"/>
	<path class="st0" d="M34.5,148.9c-3-5.6-5.5-10.6-8.3-15.4c-1.7-2.9,0-4.9,1.5-6.9c0.7-0.9,3-1.7,3.5-1.3c1.6,1.2,3.5,2.9,3.9,4.8
		C36.6,136.1,36.2,142.1,34.5,148.9z"/>
	<path class="st0" d="M503.4,122.6c-4.2-5.9-5-11.3-3.3-17.1c0.7-2.2,2.1-4.6,4.9-3.7c2.6,0.9,3.5,3.1,2.7,5.9
		C506.3,112.5,505,117.1,503.4,122.6z"/>
	<path class="st0" d="M516.1,91.2c3,9.5,5.3,19.1,2.1,29.4c-2-5.2-3.8-10.1-5.6-15c-0.1-0.4,0-0.8,0.1-1.3c0.8-4.3,1.6-8.6,2.4-13
		C515.4,91.3,515.7,91.3,516.1,91.2z"/>
	<path class="st0" d="M22.1,126.5c-1.3-4.7-2.6-9.4-3.9-14.1c-0.5-2.1,0.1-4.2,2.2-4.4c1.3-0.1,3.4,1.2,4,2.4
		C27.1,115.9,26.4,121.3,22.1,126.5z"/>
	<path class="st0" d="M11.2,95.7c0.9,4.9,2.7,9.4,2.3,13.7c-0.4,4.3-3,8.4-4.6,12.3C6,117.8,7,103,11.2,95.7z"/>
	<path class="st0" d="M519.2,76c0.9,6.4,1.7,12.8,2.6,19.2C516.4,89.4,514.2,83.2,519.2,76z"/>
	<path class="st0" d="M509.8,102c-4-3.2-5.2-8.4-2.8-12.1c0.6-0.9,1.5-1.6,2.5-2.1c2-0.9,3.2,0.1,2.8,2.3c-0.4,1.9-1,3.8-1.4,5.8
		C510.6,97.8,510.2,99.8,509.8,102z"/>
	<path class="st0" d="M518.4,56.9c3.6,6.4,3.9,12.8,3.5,19.8C517.5,73.1,516.6,67.6,518.4,56.9z"/>
	<path class="st0" d="M16.4,107c-0.9-4.7-1.8-9.2-2.6-13.8c3.3-0.1,4.7,1.7,5.3,3.8C20.2,100.7,20.5,104.2,16.4,107z"/>
	<path class="st0" d="M6.3,97.8c-0.8-5.5,0.4-13.2,2.6-16.4C11.7,87.4,11.2,92.9,6.3,97.8z"/>
	<path class="st0" d="M9.1,63.8c0.1,5.7,2.2,11.8-3.1,17C4.8,74.5,6.2,69,9.1,63.8z"/>
	<path class="st0" d="M514.2,72.9c0,1,0.1,1.7,0,2.5c-0.4,3-0.8,6.1-1.3,9.6c-2.6-2.3-3.1-4.7-2.5-7.4
		C510.8,75.6,511.2,73.4,514.2,72.9z"/>
	<path class="st0" d="M515.4,54.2c-0.3,5.3-0.5,9.7-0.8,14.4C510.9,65.2,511.1,58.9,515.4,54.2z"/>
	<path class="st0" d="M12.4,74.4c0-4.1,0-8.2,0-12.3C15.4,64.6,15.7,70,12.4,74.4z"/>
	<path class="st0" d="M13.6,90.4c-0.4-4.1-0.7-7.5-1-11.2C16.5,81.3,17.1,86.3,13.6,90.4z"/>
	<path class="st0" d="M514.3,53c-3.7-5.3-3.9-7.6-0.2-10.8c0.4,3.9,0.8,7.3,1.2,10.6C514.9,52.9,514.6,52.9,514.3,53z"/>
	<path class="st0" d="M12.2,59.7c0.5-3.1,0.9-6.2,1.4-9.6c2.9,2.8,2.6,5.3-0.5,9.8C12.9,59.8,12.6,59.7,12.2,59.7z"/>
	<path class="st0" d="M521,57.6c-1.3-3.5-2.6-7-3.9-10.4c0.5-0.2,1-0.4,1.5-0.6c1.2,3.5,2.5,7,3.7,10.5
		C521.9,57.2,521.4,57.4,521,57.6z"/>
	<path class="st0" d="M10.7,54c-1.3,2.9-2.5,5.7-3.8,8.6c-0.3-0.1-0.7-0.3-1-0.4c1.1-2.9,2.1-5.8,3.2-8.7
		C9.7,53.7,10.2,53.9,10.7,54z"/>
	<path class="st0" d="M511.3,31.2c0.5,2.5,1,4.9,1.5,7.4c-0.5,0.1-0.9,0.2-1.4,0.3c-0.6-2.5-1.2-4.9-1.7-7.4
		C510.2,31.4,510.7,31.3,511.3,31.2z"/>
	<path class="st0" d="M518.9,43.4c-1.1-2.5-2.3-4.9-3.4-7.4c0.4-0.2,0.8-0.4,1.2-0.6c1.1,2.5,2.1,5,3.2,7.5
		C519.6,43,519.3,43.2,518.9,43.4z"/>
	<path class="st0" d="M15.2,46.2c0.6-2.3,1.1-4.6,1.7-6.8c0.4,0.1,0.8,0.2,1.2,0.3c-0.5,2.3-1.1,4.6-1.6,6.8
		C16.1,46.3,15.6,46.3,15.2,46.2z"/>
	<path class="st0" d="M379.9,192.2c0,0-1.6,31.6-0.8,32.2c0.8,0.6,27.6-4.5,29.1-9.9s-6-29-6-29l-6.8-0.9l-12.3,3.3L379.9,192.2z"/>
	<path d="M526.6,71.8c-0.9-17.3-2.6-34.4-11.7-49.9c-6.2-10.4-13.3-19.3-26.4-21c-4.7-0.6-7.8,1.4-8.1,6.2c-0.1,1.3-0.2,2.6-0.4,3.9
		c-0.7,3.4,0.4,6.3,3.7,7.2c2.6,0.7,5.6,0.4,8.3,0.1c1-0.1,2.6-1.7,2.6-2.7c0.1-1-1.5-2-2.6-3.4c-0.9,5-2.8,6.4-5.2,4.5
		c-2.6-2.1-1.2-4.9-0.7-7.4c0.5-2.4,2.5-1.7,4.1-1.4c6,1.5,10.3,5,13,10.5c4.7,9.4,5.8,19.6,6.6,29.9c1.3,16.7-1.6,32.6-8.1,48
		c-4.8,11.2-11.3,21.2-18.7,30.8c-15.3,19.8-33.8,35.7-57.1,45.4c-10.6,4.4-21.5,8.1-31.9,12c0,0,0,0-0.1,0c-0.1,0-0.1,0-0.2,0.1
		c-0.3,0.1-0.6,0.2-0.9,0.3c0,0,0,0,0,0c-2.8,1-5.7,1.6-6.8,1.7c-0.1,0-0.2,0-0.3,0.1c-0.1,0-0.2,0-0.2,0s0,0,0,0
		c-11.5,1.9-23.5,4.8-35.6,5.5c-15.8,0.9-31.7,0.5-47.5-0.5c-14.1-0.9-27.7-4.6-39.4-12.4c-3.5,1.8-6.7,3.6-10.1,5
		c-14.7,6.2-30.1,9.6-46,11.1c-15.9,1.4-31.8,2.1-47.8-0.3c-14.5-2.2-28.6-5.8-42.4-10.9c-16.9-6.3-33.2-13.6-47.2-25.2
		c-11.5-9.5-21.1-20.8-30.2-32.6c-6.8-8.8-12-18.6-15.8-29c-5.1-14.1-5.5-28.6-3.8-43.3c1.3-11.1,3-22.1,7.7-32.5
		c3-6.8,7.8-11.5,15.2-13.1c4-0.9,4.7-0.5,5.4,3.5c0.2,1.2,0.5,2.5,0.1,3.6c-0.3,1-1.4,2-2.3,2.3c-0.9,0.3-2.5,0-3.1-0.7
		c-0.9-0.9-1.1-2.4-1.6-3.7c-3.1,1.5-3.9,3-2.3,4.6c2.2,2.2,8.5,2.8,11.6,1.1c4.1-2.3,4.5-3.6,3.2-9.3c-0.2-1.1-0.4-2.2-0.5-3.3
		c-0.4-3.2-2.4-5.1-5.4-5.3c-2.5-0.2-5.1,0.2-7.5,0.7c-5.8,1.3-11.4,3.1-15.4,7.8C14.5,21.9,7.3,35.4,4.1,51
		c-4.3,21.2-5.7,42.4-2,64C5,131.9,9.4,148.2,17,163.3c5.9,11.7,13.8,22.4,21.7,32.9c8.8,11.8,20.4,20.8,32.2,29.5
		c20.6,15.1,42.7,27.3,66.8,35.7c20.6,7.1,41.8,11.6,63.2,14.8c9,1.3,18.1,1.9,27.1,2.3c13.2,0.7,26.4,1.3,39.5,1.3
		c21.9,0,43.6-2.2,65.3-4.9c26.9-3.4,52.7-10.2,77.4-21.5c19.7-9.1,37.7-20.4,53.6-35.2c12.5-11.7,23.8-24.4,33.3-38.7
		c4.8-7.3,9.9-14.5,13.5-22.4c6.5-14.6,10.7-29.9,12.4-45.9C524.5,98.1,527.3,85.1,526.6,71.8z M115.9,213.7
		c1.3-5,2.1-10.2,3.6-15.2c1.3-4.6,7.7-7.1,12.8-5.3c3.9,1.4,6.9,3.7,8.2,8c2.1,6.9,2.7,15.9,1.2,23.7c-1.4-0.1-3,0.1-4.4-0.4
		c-6.5-2.3-12.9-4.7-19.3-7.1C116.1,216.8,115.4,215.7,115.9,213.7z M68,189.8c1.1-4.6,2.2-9.3,3.6-13.8c1-3.1,3.9-2.8,6.2-1.9
		c4.3,1.8,7.7,4.9,8.1,9.7c0.4,6.3,0.1,12.7,0.1,19.1c-0.5,0.3-1.1,0.6-1.6,0.9c-5.2-3.8-10.5-7.5-15.7-11.4
		C68.1,192,67.8,190.6,68,189.8z M41.2,142.2c0.9-0.4,3.3,0.6,3.9,1.6c4.6,7.3,6.6,15.1,2.5,24.5c-3.6-5-6.8-9.4-9.8-14
		C36.1,151.6,38.3,143.5,41.2,142.2z M31.2,125.3c1.6,1.2,3.5,2.9,3.9,4.8c1.5,6,1.1,12.1-0.6,18.8c-3-5.6-5.5-10.6-8.3-15.4
		c-1.7-2.9,0-4.9,1.5-6.9C28.3,125.7,30.6,124.9,31.2,125.3z M24.4,110.4c2.7,5.5,2,10.9-2.3,16.1c-1.3-4.7-2.6-9.4-3.9-14.1
		c-0.5-2.1,0.1-4.2,2.2-4.4C21.7,107.9,23.8,109.2,24.4,110.4z M19.1,97.1c1.1,3.6,1.4,7.2-2.7,10c-0.9-4.7-1.8-9.2-2.6-13.8
		C17.1,93.1,18.4,94.9,19.1,97.1z M13.6,90.4c-0.4-4.1-0.7-7.5-1-11.2C16.5,81.3,17.1,86.3,13.6,90.4z M12.4,74.4
		c0-4.1,0-8.2,0-12.3C15.4,64.6,15.7,70,12.4,74.4z M16.9,39.3c0.4,0.1,0.8,0.2,1.2,0.3c-0.5,2.3-1.1,4.6-1.6,6.8
		c-0.4-0.1-0.9-0.2-1.3-0.3C15.8,43.9,16.3,41.6,16.9,39.3z M13.7,50.1c2.9,2.8,2.6,5.3-0.5,9.8c-0.3,0-0.6-0.1-0.9-0.1
		C12.7,56.6,13.2,53.5,13.7,50.1z M9.1,53.5c0.5,0.2,1.1,0.4,1.6,0.5c-1.3,2.9-2.5,5.7-3.8,8.6c-0.3-0.1-0.7-0.3-1-0.4
		C7,59.3,8.1,56.4,9.1,53.5z M9.1,63.8c0.1,5.7,2.2,11.8-3.1,17C4.8,74.5,6.2,69,9.1,63.8z M8.9,81.4c2.9,6,2.3,11.5-2.6,16.4
		C5.5,92.3,6.6,84.6,8.9,81.4z M11.2,95.7c0.9,4.9,2.7,9.4,2.3,13.7c-0.4,4.3-3,8.4-4.6,12.3C6,117.8,7,103,11.2,95.7z M20.1,135.6
		c-0.8,3.9-0.9,8-1.3,12.1c-8.7-6.5-8.6-22.8-3.9-33.2c1.5,4.1,2.7,8.1,4.3,11.8C20.5,129.4,20.7,132.3,20.1,135.6z M20.9,152.4
		c0.3-5.4,1-10.7,1.7-17c3.5,6.1,6.4,11.2,9.4,16.3c0.2,0.4,0.3,0.9,0.2,1.3c-0.8,5.3-1.7,10.6-2.6,16.4
		C22.9,165.1,20.6,159.3,20.9,152.4z M46.8,173.4c-0.6,4.5-1.1,9-2.1,13.4c-0.3,1.3-1.9,2.3-2.9,3.4c-9.9-8.8-13.1-24.8-7.4-34.2
		c3.9,4.8,7.9,9.7,11.8,14.6C46.7,171.3,46.9,172.5,46.8,173.4z M64.5,204.9c-0.4,2.1-2.4,4-3.7,5.9c-12.5-7.2-15.8-16.2-12-36
		c5.1,5.7,10.1,11.4,15.1,17.1c0.5,0.5,0.8,1.3,0.8,2C64.8,197.7,65.2,201.4,64.5,204.9z M65.1,188.7c-4.5-5.5-9.2-10.9-13.5-16.7
		c-1.8-2.4,1.4-11.8,4.2-12.7c1.2-0.4,3.2,0,4.3,0.8c4.1,3.2,7.4,7,7.4,12.7c-0.1,4.2,0.1,8.4-0.1,12.6c0,1-0.6,1.9-1,2.9
		C65.9,188.5,65.5,188.6,65.1,188.7z M84.2,227.3c-1.4,0.6-3.6,1-4.9,0.4c-5.9-2.9-9.9-7.4-10.7-14.2c-0.7-5.9-1.3-11.8-1.9-17.9
		c5.7,3.3,11.2,6.4,16.6,9.7c0.7,0.4,1.2,1.5,1.3,2.3c0.6,5.2,0.8,10.4,1.7,15.5C86.7,225.4,85.7,226.6,84.2,227.3z M113.2,221.6
		c-0.3,4.8-0.5,9.7-0.5,14.6c0,4.9-4.3,7.7-9,6.1c-8.9-3.1-13.7-9.3-14.8-18.5c-0.6-5.5-0.8-11-1.2-16.4c7.9,3.5,15.2,6.8,22.7,9.8
		C112.7,218.2,113.3,219.3,113.2,221.6z M113.3,215.3c-8.4-3.7-16.3-7-24.1-10.6c-0.7-0.3-1.3-1.8-1.2-2.6c0.6-4.8,2.1-9.3,5.5-12.9
		c5.1-5.5,14.7-3.7,17.3,3.3c1.3,3.4,1.9,7,2.3,10.6C113.6,206.8,113.3,210.7,113.3,215.3z M131.9,254.2c-2.1-0.7-4.2-1.5-6.2-2.2
		c-6.3-2.4-9.3-7.4-10.1-13.6c-0.6-4.5-0.3-9-0.4-13.6c0-1.8,0-3.5,0-4.6c8.7,3.1,17.7,6.3,26.8,9.6c0.3,5.2,0.6,10.9,0.8,16.6
		C142.9,251.4,136.6,255.9,131.9,254.2z M146.2,216.7c0.7-3.6,1.3-7.2,2.2-10.7c1.2-4.7,3.8-6.7,8.6-6.7c3.4,0,6.9,0.2,10.2,0.9
		c6.6,1.4,10.1,5.9,10.5,12.7c0.2,2.8,0,5.5,0,8.3c0.1,0,0.2,0,0.3,0c0,2.4-0.2,4.9,0,7.3c0.3,3.1-1.2,3.8-4,3.9
		c-7,0.3-13.6-1.2-20.2-3.2C143.9,226.2,144.1,228,146.2,216.7z M178.7,252.9c-1.1,6.4-8.4,10.6-14.9,9.3c-3.5-0.7-6.9-1.5-10.4-2.2
		c-3.3-0.7-5.3-3.1-5.9-6.1c-1.1-5.3-1.8-10.6-2.3-16c-0.3-2.8-0.1-5.7-0.1-8.5c10.2,3.3,20.5,6.4,31.6,5.6c1.7-0.1,2.5,0.3,2.5,2.1
		C179.1,242.4,179.7,247.8,178.7,252.9z M182.7,205c0.1-1.3,2-3.2,3.3-3.5c4.8-0.8,9.6-1.2,14.4-1.4c3.3-0.2,6.6,0.2,9.9,0.2
		c2.4,0,3.4,0.8,3.5,3.3c0.5,10.9,1,21.8,1.6,33.1c-12.3,0.9-23.1-2.1-34.6-4.6C181.4,223.1,181.9,214,182.7,205z M216.2,264.2
		c-0.8,6.3-1.6,7-7.9,6c-4.3-0.7-8.5-1.5-12.8-2.1c-3.6-0.5-5.6-2.6-7.3-5.5c-4.9-8.3-4.2-17.5-5.1-26.9c10.6,3.7,21.2,4.6,32.3,3.7
		c0.3,7.9,0.6,15.3,0.9,22.7C216.4,262.8,216.3,263.5,216.2,264.2z M257,263.2c-0.1,7.4-3.8,10.5-11.1,10.3
		c-4.8-0.1-9.5-0.5-14.3-0.5c-5.2,0-8.4-3.4-9.2-7.6c-1.6-8.5-2.1-17.3-3.1-25.8c12.5,0,24.6,0,36.9,0
		C256.5,247.3,257.1,255.3,257,263.2z M256.9,232.4c0,3.3-1.7,4.3-4.7,4.6c-11,1-21.9,0.9-33-1c-1.6-10.4-2-20.5-0.4-30.7
		c0.4-2.7,1.5-4.9,4.1-6c6.7-2.8,13.3-6.1,20.3-8c7.8-2.1,14.1,2.8,14.3,10.9C257.7,212.3,257.1,222.3,256.9,232.4z M299.3,267.1
		c-0.5,5.7-4.6,9-10.4,9.1c-5.2,0.1-10.4,0-15.6,0c-5.5,0-9.8-3.4-10.6-8.9c-0.6-4-0.6-8.2-0.6-12.2c-0.1-4.7,0-9.5,0-14.9
		c13.2,0,25.8,0,38.8,0c-0.2-0.3,0-0.1,0,0C300.3,249.2,300,258.2,299.3,267.1z M301,234.2c-0.1,0.7-1.1,1.8-1.9,2
		c-10.9,2.2-22,2.3-33.1,1.9c-3.3-0.1-4.7-1.6-4.8-4.9c-0.1-4.7-0.5-9.3-0.8-16c0.2-3.4,0.3-8.8,0.7-14.3
		c0.7-8.9,7.5-14.8,16.4-13.1c6.1,1.1,12,3.7,18,5.7c3.2,1.1,4.5,3.6,5,6.8C302.4,213,302,223.6,301,234.2z M516.7,35.4
		c1.1,2.5,2.1,5,3.2,7.5c-0.3,0.2-0.7,0.3-1,0.5c-1.1-2.5-2.3-4.9-3.4-7.4C515.9,35.8,516.3,35.6,516.7,35.4z M515.4,54.2
		c-0.3,5.3-0.5,9.7-0.8,14.4C510.9,65.2,511.1,58.9,515.4,54.2z M514.2,75.3c-0.4,3-0.8,6.1-1.3,9.6c-2.6-2.3-3.1-4.7-2.5-7.4
		c0.4-2,0.8-4.2,3.8-4.7C514.2,73.9,514.3,74.6,514.2,75.3z M514.1,42.2c0.4,3.9,0.8,7.3,1.2,10.6c-0.3,0-0.6,0.1-0.9,0.1
		C510.6,47.7,510.4,45.3,514.1,42.2z M509.7,31.5c0.5-0.1,1.1-0.2,1.6-0.3c0.5,2.5,1,4.9,1.5,7.4c-0.5,0.1-0.9,0.2-1.4,0.3
		C510.8,36.4,510.3,34,509.7,31.5z M507.1,89.9c0.6-0.9,1.5-1.6,2.5-2.1c2-0.9,3.2,0.1,2.8,2.3c-0.4,1.9-1,3.8-1.4,5.8
		c-0.4,1.9-0.7,3.9-1.1,6.1C505.8,98.8,504.6,93.6,507.1,89.9z M500.1,105.5c0.7-2.2,2.1-4.6,4.9-3.7c2.6,0.9,3.5,3.1,2.7,5.9
		c-1.4,4.7-2.7,9.4-4.3,14.9C499.2,116.8,498.4,111.3,500.1,105.5z M489.4,123c0.5-2.2,1.4-4.6,3.8-4.2c1.9,0.3,3.9,1.8,5.1,3.3
		c1.8,2.3,2,5.1,0.2,7.9c-2.8,4.3-5.3,8.9-8.1,13.8C488.6,136.6,487.9,129.9,489.4,123z M477.1,139.8c0.7-1.4,1.5-2.7,2.4-3.9
		c1.3-1.5,2.9-1.7,4.1,0.1c4.5,6.8,6.5,11.1,1,17.5c-2.6,3.1-5,6.4-7.9,10C473.3,155.1,473.5,147.4,477.1,139.8z M343.1,208.1
		c0.1-8.9,6.3-15.2,15.2-15.6c0.1,0,0.2,0,0.3,0c10.9-0.3,12.7,1,15.2,11.7c1.3,5.8,2.4,11.7,3.4,17.6c0.2,1.2-0.7,3.3-1.6,3.7
		c-9.1,3.7-18.5,6.6-28.6,6c-2.3-0.1-3.7-0.8-3.6-3.5c0.1-3.9-0.2-11.6-0.4-11.6C343.1,213.7,343,210.9,343.1,208.1z M334.1,266.7
		c-1.4,2.8-3.2,4.9-6.6,5.3c-5.7,0.7-11.4,1.5-17.1,2.3c-1.8,0.3-3-0.2-3.5-2.1c-0.6-2.2-1.7-4.4-1.8-6.7c-0.2-8.5-0.1-17-0.1-25.8
		c11.4,1,22.3-0.2,33.3-4.5C337.9,246.2,339.2,256.8,334.1,266.7z M305.7,236.7c-0.3-4.3-0.8-8.6-0.7-12.8
		c0.1-8.2,0.5-16.4,0.9-24.5c0.1-1.1,1.3-2.9,2.1-3c8.1-0.6,16.1-3,24.4-0.9c3.6,0.9,5.4,2.6,5.7,6.2c0.5,6,1,11.9,1.5,17.9
		c0.3,3.8,0.4,7.7,0.6,11.9C328.7,233.8,317.8,237.7,305.7,236.7z M375.7,258.6c-1.2,3.3-3.1,5.4-6.8,5.9c-3.2,0.5-6.3,1.2-9.4,2.1
		c-4.1,1.2-7.4-0.1-10.3-2.9c-3.7-3.6-6.6-7.5-6.6-12.9c-0.1-5.2,0-10.4,0-15.9c12.5,0.8,23.8-1.9,35.3-6.4
		C377.4,238.5,379.3,248.7,375.7,258.6z M379.8,204.3c0.5-5.8,0.2-12.3,4.8-16.1c2-1.2,6.5-2.2,9-2.6c0.8-0.1,1.6-0.1,2.4,0.2
		c3.1,1.1,5.6,3.4,6.7,7.1c1.8,6,2.7,12.3,4.4,18.4c0.7,2.8-0.4,3.8-2.7,4.7c-6,2.3-11.9,4.8-18,7c-1.7,0.6-3.7,0.6-6.2,1
		C380,216.9,379.2,210.5,379.8,204.3z M407.6,245.5c-1.6,5.4-4.9,9.3-10.6,10.8c-0.6,0.2-1.3,0.4-1.9,0.7
		c-6.5,2.5-10.1,1.3-13.7-4.7c-0.5-0.8-0.6-1.9-0.6-2.8c0-7.1,0-14.1,0-21.4c9.5-1.7,18.9-4.6,27.4-10.7
		C408.5,227,410.4,236.3,407.6,245.5z M410.8,186.5c1.4-4.7,4.6-6.6,8.7-7.6c3.6-0.8,6.8,0.5,9.2,3.4c4,4.9,6.3,10.6,6.9,16.9
		c0.1,0.9-0.6,2.5-1.4,2.9c-7.8,3.6-15.7,7-24.2,10.6C409.6,203.6,408.2,195.1,410.8,186.5z M434.7,229.8
		c-1.2,8.5-7.1,13.2-14.8,15.7c-3.9,1.3-8.5-2.6-8.7-6.7c-0.2-6.2-0.5-12.4-0.9-18.6c-0.2-2.4,0.3-3.7,2.8-4.7
		c7.6-3.1,15.1-6.7,23.6-10.6C436.1,213.4,435.8,221.7,434.7,229.8z M436.9,178.5c-0.1-4.7,2.1-8.5,6.3-11c3.8-2.2,7.4-1.3,8.8,2.8
		c1.7,5.2,2.8,10.6,4,16c0.2,0.7,0.2,1.8-0.2,2.2c-4.8,5.1-10.2,9.3-17.9,12.6C437.5,192.9,437,185.7,436.9,178.5z M454.8,219.9
		c-1.6,5.2-6,7.6-10,10.1c-2.1,1.3-6.6-2.4-6.5-5c0.3-6.6,0.7-13.3,1.2-19.9c0.1-0.8,1-1.8,1.8-2.4c5.3-3.3,10.7-6.6,16.1-9.9
		C457.6,202,457.5,211,454.8,219.9z M456.2,178.8c-0.2-4.9-0.2-9.7,0-14.6c0.1-5.1,3.4-8.5,7.1-11.5c2.3-1.8,5.5-1,6.7,1.8
		c1.4,3.3,2.4,6.9,3.4,10.4c0.2,0.6,0.1,1.4-0.2,1.9c-3.9,6.7-9.2,12.4-15.3,18.7C457.2,182.7,456.3,180.8,456.2,178.8z
		 M465.2,210.9c-3.5-3-5-6.6-5.4-11.4c-0.5-6.5,0.6-11.4,5.7-16c4-3.6,6.8-8.5,10.4-13.2C478.6,185.8,481.6,200.9,465.2,210.9z
		 M490.7,182.4c-1.7,2.4-4,4.4-6,6.6c-2.9-0.9-4-2.6-4.2-5.6c-0.3-4.4-1.5-8.7-2.1-13.1c-0.2-1.1-0.4-2.7,0.1-3.4
		c3.9-5.1,8.1-10.1,12.2-15.2C494.7,158,494.8,176.6,490.7,182.4z M503.5,160.5c-1.2,2.9-4.1,5.1-6.3,7.6c-0.3-0.2-0.6-0.4-0.9-0.6
		c-1.1-6.1-2.2-12.3-3.3-18.4c-0.1-0.4,0-0.9,0.2-1.3c3-5.2,6.1-10.4,9.6-16.3C504.1,141.7,507.3,151.1,503.5,160.5z M507.7,145.7
		c-0.9-6-2.2-12.1-2.6-18.2c-0.2-2.2,1.5-4.5,2.3-6.8c1.3-3.4,2.6-6.8,3.9-10C517.7,117.1,515.4,140.8,507.7,145.7z M518.1,120.6
		c-2-5.2-3.8-10.1-5.6-15c-0.1-0.4,0-0.8,0.1-1.3c0.8-4.3,1.6-8.6,2.4-13c0.3,0,0.7-0.1,1-0.1C519,100.7,521.4,110.3,518.1,120.6z
		 M519.2,76c0.9,6.4,1.7,12.8,2.6,19.2C516.4,89.4,514.2,83.2,519.2,76z M521.9,76.7c-4.5-3.6-5.4-9-3.5-19.8
		C521.9,63.2,522.3,69.7,521.9,76.7z M521,57.6c-1.3-3.5-2.6-7-3.9-10.4c0.5-0.2,1-0.4,1.5-0.6c1.2,3.5,2.5,7,3.7,10.5
		C521.9,57.2,521.4,57.4,521,57.6z"/>
</g>
</svg>
