<?xml version="1.0" encoding="utf-8"?>
<!-- Generator: Adobe Illustrator 22.0.1, SVG Export Plug-In . SVG Version: 6.00 Build 0)  -->
<svg version="1.1" id="Laag_1" xmlns="http://www.w3.org/2000/svg" xmlns:xlink="http://www.w3.org/1999/xlink" x="0px" y="0px"
	 viewBox="0 0 321.1 193" style="enable-background:new 0 0 321.1 193;" xml:space="preserve">
<style type="text/css">
	.st0{fill:#1D1D1B;}
	.st1{fill:#FFFFFF;}
	.st2{fill:#010102;}
	.st3{fill:none;stroke:#FFFFFF;stroke-miterlimit:10;}
	.st4{font-family:'BrushScriptMT';}
	.st5{font-size:57px;}
</style>
<title>Logo cheshire cat</title>
<g id="Logo">
	<g id="Lichaam">
		<g>
			<path class="st0" d="M176.3,1.5c-19-6.6-58.5,4.5-76.8,15.7c-5.2,3.2-6.9,10-3.7,15.2c0.3,0.5,0.6,1,1,1.4
				c14,16.2,14.7,34.2,15.5,45.5c0.4,6.1,5.7,10.7,11.8,10.3c0.2,0,0.5,0,0.7-0.1c5.4-0.7,11-1.8,20.5-1.1c2.2,0.1,4.2,0.9,5.9,2.2
				c11.1,8.8,2.6,32.7-21.5,31.5c-0.6,0-1.2-0.1-1.8-0.2c-29.2-6.2-39-17.5-69.4-19.7c-3.9-0.3-7.8,0.1-11.6,1
				c-59.8,14.5-33.7,60.1-30.2,65.7c0.2,0.3,0.4,0.7,0.7,1c4.3,5.5,22,27.4,49.8,16.2c0.1-0.6-0.3-1.2-0.9-1.4
				c0,0-13.5-6.9-20.6-24.7c-3.2-9.2,5-18.5,12.6-24.4s13.1-7.8,35.4-2.5c0.6,0.1,1.2,0.3,1.7,0.6c20.8,8.7,55.9,16.6,70,12.9
				c14.3-3.7,53.8-14.5,60.2-61.7S200.9,10,176.3,1.5z"/>
			<path class="st1" d="M0.5,159c0,0,34.2,5,55.2-5.7s7.9,13.9,7.9,13.9s-57.2,14.2-63.8,0.6S0.5,159,0.5,159z"/>
			<path class="st1" d="M8.1,120.4c0,0,16.1,22.2,36.4,28.6s9.5-6.8,9.5-6.8S13,122.1,21.3,114.1S8.1,120.4,8.1,120.4z"/>
			<path class="st1" d="M62.8,99.3c0,0-2.3,22.7,1.3,34.1s5.8,2,5.8,2s-1.6-18.9,0.1-34.3S62.8,99.3,62.8,99.3z"/>
			<path class="st1" d="M134,117.7c0,0,10.7,28.1,25.5,35.1s4.9-1.3,4.2-2.3s-22.6-25-25-32S134,117.7,134,117.7z"/>
			<path class="st1" d="M115.1,114.4c0,0,1.7,22.2,5.6,30.1s8.7,3.9,8.7,3.9s-9.8-18.1-10.1-30.4S115.1,114.4,115.1,114.4z"/>
			<path class="st1" d="M90.8,105c0,0-6.2,18.8-2,30s3.6,1.2,3.6,1.2s2-25.8,3.4-28.9S90.8,105,90.8,105z"/>
			<path class="st1" d="M146.2,110.5c1.4-1.2,51,11.9,86.8-13.6s-7.8,0.8-7.8,0.8s-37,12.9-75.1,8.7S146.2,110.5,146.2,110.5z"/>
			<path class="st1" d="M151.9,97.8c0,0,57.1-34,77.1-71.4s-10.1,5.1-10.1,5.1S189,73.7,148.2,93.8S151.9,97.8,151.9,97.8z"/>
			<path class="st1" d="M137,102.7c0,0,52.4-62.7,45.6-108.6S175-3.1,175-3.1S170,38.6,137,102.7z"/>
			<path class="st1" d="M106.2,4.2c0,0,32.7,37.4,23.6,88.8s-3.8-0.4-3.8-0.4s6.4-36.9-23.3-83.9S106.2,4.2,106.2,4.2z"/>
		</g>
	</g>
	<path id="Oor_links" class="st0" d="M0,53.8c0,0,11.5-29.7,18.1-32c6,0.8,13.5,17.3,18.1,30.1C31.5,60.4,1,56.3,0,53.8z"/>
	<path id="Oor_rechts" class="st0" d="M56.8,48.9c0,0,11.3-34.4,13.8-33.1s21.4,22.9,20.1,25.4S71.5,51.3,56.8,48.9z"/>
	<g id="Grin">
		<g>
			<path class="st2" d="M10.4,75.8c9.2,4.7,40.6,16.9,77.3-11.9c0.5-0.4,1.2-0.3,1.6,0.2c0.2,0.2,0.3,0.6,0.2,0.9
				c-1.5,8.8-6.6,16.5-13.9,21.5l-0.1,0.1c-23.1,14.1-57.9,9.8-66.7-9.3c-0.3-0.6,0-1.2,0.6-1.5C9.7,75.6,10.1,75.6,10.4,75.8z"/>
			<path class="st3" d="M8,81.2c0,0,10.2-2.2,12.1-4.3s1.6,13.5,2.4,14.9s9.7-12,10-12.5s6,15.5,6.3,16.2s5.1-14.9,5.9-16.2
				s10.7,14,11,16.2s2.7-17.4,4-18.9s10.5,11.8,11.2,14.9s2.7-17.3-0.1-19.7s12.6,2.7,14.5,8.3s3.5-14.9-1.7-16.4"/>
		</g>
	</g>
	<g id="ogen">
		<ellipse transform="matrix(0.2589 -0.9659 0.9659 0.2589 -49.937 71.6678)" class="st0" cx="21.7" cy="68.4" rx="4" ry="13.8"/>
		<ellipse transform="matrix(0.866 -0.5 0.5 0.866 -21.0853 44.6714)" class="st0" cx="72.8" cy="61.7" rx="13.1" ry="3.3"/>
		
			<ellipse transform="matrix(9.601951e-02 -0.9954 0.9954 9.601951e-02 -47.7448 82.9178)" class="st1" cx="21.8" cy="67.7" rx="6.4" ry="1.4"/>
		
			<ellipse transform="matrix(0.9988 -4.867544e-02 4.867544e-02 0.9988 -2.9194 3.5919)" class="st1" cx="72.3" cy="61.7" rx="1.4" ry="6.4"/>
	</g>
	<text transform="matrix(1 0 0 1 68.97 185.1)" class="st0 st4 st5">Cheshire Cat</text>
</g>
</svg>
