<?xml version="1.0" encoding="utf-8"?>
<!-- Generator: Adobe Illustrator 22.0.1, SVG Export Plug-In . SVG Version: 6.00 Build 0)  -->
<svg version="1.1" id="Laag_1" xmlns="http://www.w3.org/2000/svg" xmlns:xlink="http://www.w3.org/1999/xlink" x="0px" y="0px"
	 viewBox="0 0 321.1 193" style="enable-background:new 0 0 321.1 193;" xml:space="preserve">
<style type="text/css">
	.st0{fill:#1D1D1B;}
	.st1{fill:#187072;}
	.st2{fill:#010102;}
	.st3{fill:none;stroke:#187072;stroke-miterlimit:10;}
	.st4{fill:#FFFFFF;}
	.st5{font-family:'BrushScriptMT';}
	.st6{font-size:57px;}
</style>
<title>Logo cheshire cat</title>
<g id="Logo">
	<g id="Lichaam">
		<g>
			<path class="st0" d="M180,2.3c-19-6.6-58.5,4.5-76.8,15.7c-5.2,3.2-6.9,10-3.7,15.2c0.3,0.5,0.6,1,1,1.4
				c14,16.2,14.7,34.2,15.5,45.5c0.4,6.1,5.7,10.7,11.8,10.3c0.2,0,0.5,0,0.7-0.1c5.4-0.7,11-1.8,20.5-1.1c2.2,0.1,4.2,0.9,5.9,2.2
				c11.1,8.8,2.6,32.7-21.5,31.5c-0.6,0-1.2-0.1-1.8-0.2c-29.1-6.2-39-17.5-69.4-19.7c-3.9-0.3-7.8,0.1-11.6,1
				C-9,118.5,17,164.1,20.5,169.7c0.2,0.3,0.4,0.7,0.7,1c4.3,5.5,22,27.4,49.8,16.2c0.1-0.6-0.3-1.2-0.9-1.4c0,0-13.5-6.9-20.6-24.7
				c-3.2-9.2,5-18.5,12.6-24.4s13.1-7.8,35.4-2.5c0.6,0.1,1.2,0.3,1.7,0.6c20.8,8.7,55.9,16.6,70,12.9c14.3-3.7,53.8-14.5,60.2-61.7
				S204.6,10.8,180,2.3z"/>
			<path class="st1" d="M4.3,164.8c0,0,34.2,5,55.1-5.7s7.9,8.9,7.9,8.9s-51.8,9.8-63.8,0.6C-3.3,163.3,4.3,164.8,4.3,164.8z"/>
			<path class="st1" d="M14,115.6c-1.6,3.2-1.1,7.1,1.2,9.9c5.8,6.8,18.3,19.7,33,24.4c20.3,6.4,9.5-6.8,9.5-6.8
				S16.7,122.9,25,114.9C20.2,106.8,16.3,111.1,14,115.6z"/>
			<path class="st1" d="M66.6,100.1c0,0-2.3,22.7,1.3,34.1s5.8,2,5.8,2s-1.6-18.9,0.1-34.3S66.6,100.1,66.6,100.1z"/>
			<path class="st1" d="M137.7,118.5c0,0,10.7,28.1,25.5,35.1s4.9-1.3,4.2-2.3s-22.6-25-25-32S137.7,118.5,137.7,118.5z"/>
			<path class="st1" d="M118.8,115.2c0,0,1.7,22.2,5.6,30.1c3.9,7.9,8.7,3.9,8.7,3.9s-9.8-18.1-10.1-30.4S118.8,115.2,118.8,115.2z"
				/>
			<path class="st1" d="M94.5,105.8c0,0-6.2,18.8-2,30s3.6,1.2,3.6,1.2s2-25.8,3.4-28.9S94.5,105.8,94.5,105.8z"/>
			<path class="st1" d="M149.9,111.3c1.4-1.2,51,11.9,86.8-13.6s-7.8,0.8-7.8,0.8s-37,12.9-75.1,8.7S149.9,111.3,149.9,111.3z"/>
			<path class="st1" d="M156.8,99.5c0,0,56.1-35.7,74.9-73.7s-9.9,5.4-9.9,5.4s-28.5,43.2-68.7,64.5
				C133.1,106.3,156.8,99.5,156.8,99.5z"/>
			<path class="st1" d="M140.7,100.1c0,0,52.4-59.3,45.6-105.1s-7.6,2.8-7.6,2.8S173.7,35.9,140.7,100.1z"/>
			<path class="st1" d="M109.9,5.1c0,0,32.7,37.4,23.6,88.8s-3.8-0.4-3.8-0.4s6.4-36.9-23.3-83.9S109.9,5.1,109.9,5.1z"/>
		</g>
	</g>
	<path id="Oor_links" class="st0" d="M3.7,54.6c0,0,11.5-29.7,18.1-32c6,0.8,13.5,17.3,18.1,30.1C35.2,61.2,4.7,57.1,3.7,54.6z"/>
	<path id="Oor_rechts" class="st0" d="M60.5,49.7c0,0,11.3-34.4,13.8-33.1s21.4,22.9,20.1,25.4S75.2,52.1,60.5,49.7z"/>
	<g id="Grin">
		<g>
			<path class="st2" d="M14.2,76.6c9.2,4.7,40.6,16.9,77.3-11.9c0.5-0.4,1.2-0.3,1.6,0.2c0.2,0.2,0.3,0.6,0.2,0.9
				c-1.5,8.8-6.6,16.5-13.9,21.5l-0.1,0.1c-23.1,14.1-57.9,9.8-66.7-9.3c-0.3-0.6,0-1.2,0.6-1.5C13.5,76.5,13.8,76.5,14.2,76.6z"/>
			<path class="st3" d="M11.7,82c0,0,10.2-2.2,12.1-4.3s1.6,13.5,2.4,14.9s9.7-12,10-12.5s6,15.5,6.3,16.2s5.1-14.9,5.9-16.2
				s10.7,14,11,16.2s2.7-17.4,4-18.9c1.4-1.5,10.5,11.8,11.2,14.9s2.7-17.3-0.1-19.7s12.6,2.7,14.5,8.3s3.5-14.9-1.7-16.4"/>
		</g>
	</g>
	<g id="ogen">
		<ellipse transform="matrix(0.2589 -0.9659 0.9659 0.2589 -47.9783 75.8735)" class="st0" cx="25.5" cy="69.2" rx="4" ry="13.8"/>
		<ellipse transform="matrix(0.866 -0.5 0.5 0.866 -21.0001 46.6422)" class="st0" cx="76.5" cy="62.5" rx="13.1" ry="3.3"/>
		
			<ellipse transform="matrix(9.601951e-02 -0.9954 0.9954 9.601951e-02 -45.2045 87.3678)" class="st4" cx="25.5" cy="68.6" rx="6.4" ry="1.4"/>
		
			<ellipse transform="matrix(0.9988 -4.867544e-02 4.867544e-02 0.9988 -2.9553 3.774)" class="st4" cx="76" cy="62.6" rx="1.4" ry="6.4"/>
	</g>
	<text transform="matrix(1 0 0 1 72.6901 185.9264)" class="st0 st5 st6">Cheshire Cat</text>
</g>
</svg>
